<?xml version="1.0" encoding="utf-8"?>
<!-- Generator: Adobe Illustrator 23.0.1, SVG Export Plug-In . SVG Version: 6.00 Build 0)  -->
<svg version="1.1" id="图层_1" xmlns="http://www.w3.org/2000/svg" xmlns:xlink="http://www.w3.org/1999/xlink" x="0px" y="0px"
	 viewBox="0 0 164 44" style="enable-background:new 0 0 164 44;" xml:space="preserve">
<style type="text/css">
	.st0{fill:#5C82EE;}
	.st1{fill:#231815;}
	.st2{fill:#E73C39;stroke:#E73C39;stroke-width:0.7848;stroke-linecap:round;stroke-linejoin:round;stroke-miterlimit:10;}
	.st3{display:none;}
	.st4{display:inline;fill:#5C82EE;}
	.st5{display:inline;}
	.st6{font-family:'UTMBanque';}
	.st7{font-size:7.7933px;}
</style>
<g>
	<path class="st0" d="M40.82,15.7L40.82,15.7l0.01-0.1L43.02,0H4.57L2.38,15.6l-1.1,7.85l-0.9,6.38h7.85l0.88-6.28h24.33l-0.88,6.28
		h6.66l-0.22,1.57h-6.66h-1.98H8.38H8H0.16l-0.09,0.66c-0.53,3.8,2.41,7.19,6.25,7.19h27.34h3.86h7.25l2.3-16.36
		C47.59,19.08,44.65,15.7,40.82,15.7z M32.97,16H10.21l1.1-8h22.76L32.97,16z"/>
	<polygon class="st0" points="35.7,24.95 6.08,24.95 6.2,24.07 35.83,24.07 	"/>
	<polygon class="st0" points="35.54,26.58 5.91,26.58 6.04,25.69 35.66,25.69 	"/>
	<polygon class="st0" points="35.05,28.2 5.42,28.2 5.55,27.32 35.17,27.32 	"/>
	<polygon class="st0" points="34.64,29.82 5.02,29.82 5.14,28.94 34.77,28.94 	"/>
	<g>
		<g>
			<path class="st1" d="M49.81,13.78l5-9.23h-3.62l0.4-2.87h13.76l-0.4,2.87h-5.61L57.13,8.7h7.23l-0.02,0.12l-0.39,2.78
				l-2.13,15.13c-0.13,0.94-0.52,1.73-1.16,2.37c-0.64,0.64-1.44,0.96-2.38,0.96l-4.29,0.04h-4.36l2.3-16.33H49.81z M59.46,11.61
				h-2.87l-2.18,15.55h1.91c0.28,0,0.52-0.09,0.72-0.27c0.21-0.18,0.33-0.41,0.37-0.69L59.46,11.61z M72.53,20.05H85.5l-0.08,0.58
				l-0.86,6.11c-0.13,0.94-0.57,1.73-1.31,2.37c-0.74,0.64-1.58,0.96-2.52,0.96h-5.2l1.54-2.95h1.37c0.25,0,0.48-0.09,0.7-0.27
				c0.22-0.18,0.35-0.41,0.39-0.69l0.43-3.03h-9.02L72.53,20.05z M68.04,18.31h-4.28l0.43-3.03h8.31h5.49h8.19l-0.43,3.03H73.48
				H68.04z M80.88,13.9l0.19-1.33c0.04-0.28-0.03-0.51-0.19-0.69c-0.17-0.18-0.38-0.27-0.63-0.27H70.23l-0.32,2.29h-5.53l0.32-2.29
				l0.21-1.5l0.22-1.54h2.78L67.3,5.55h5.24l0.61,3.03h6.44l3.07-3.03h3.05l-1.47,3.03h0.58c0.64,0,1.15,0.22,1.53,0.66
				c0.38,0.44,0.53,0.98,0.44,1.62l-0.43,3.03H80.88z M66.1,1.64h7.81L73.6,0.02h5.32l0.35,1.62h8.81l-0.43,3.03H65.67L66.1,1.64z"
				/>
			<path class="st1" d="M120.99,8c0.61,0,1.17,0.12,1.68,0.35c0.51,0.24,0.93,0.55,1.26,0.96c0.33,0.4,0.58,0.87,0.74,1.41
				c0.16,0.54,0.2,1.12,0.11,1.72l-0.11,0.75h-2.91l-0.32,2.29l-0.25,1.79c-0.12,0.89-0.55,1.65-1.28,2.29
				c-0.73,0.64-1.53,0.96-2.42,0.96H95.99l-0.2,1.45h24.73l-0.09,0.62l-0.35,2.49l-0.25,1.75c-0.06,0.44-0.2,0.86-0.42,1.25
				c-0.22,0.39-0.5,0.73-0.83,1.02c-0.33,0.29-0.71,0.52-1.14,0.69c-0.43,0.17-0.86,0.25-1.3,0.25H89l0.43-3.03l0.27-1.91l0.44-3.12
				l0.2-1.45l0.43-3.08l0.27-1.95l0.32-2.29h-3.2L88.9,8h14.8l-0.47-1.12h6.28L109.97,8H120.99z M106.82,4.09h-3.87l0.8,2h-4.82
				l-0.84-2h-2l-1.19,2h-5.74l3.67-5.99h5.69l-0.7,1.16h9.39L106.82,4.09z M94.2,10.78l-0.23,1.62h25.1l0.08-0.54
				c0.04-0.3-0.02-0.56-0.2-0.77c-0.18-0.21-0.42-0.31-0.72-0.31h-8.69h-5.69H94.2z M95.35,25.08l-0.27,1.91h18.41
				c0.44,0,0.7-0.22,0.76-0.67l0.18-1.25H95.35z M115.78,15.48H96.7l-0.27,1.95h18.41c0.44,0,0.7-0.22,0.76-0.66L115.78,15.48z
				 M117.07,0.1l-0.75,1.16h9.39l-0.4,2.83h-3.87l0.84,2h-4.86l-0.84-2h-2l-1.19,2h-5.74l3.67-5.99H117.07z"/>
			<path class="st1" d="M160.05,1.56c0.61,0,1.17,0.12,1.7,0.35c0.52,0.24,0.96,0.56,1.32,0.98c0.36,0.42,0.61,0.9,0.77,1.45
				c0.16,0.55,0.19,1.14,0.11,1.75l-0.46,3.28h-4.45l-0.43,3.08h-11.39l1.6,3.7l-0.35,2.49l4.29-5.4h5.74l-4.59,5.78h2.04
				l3.81,11.01h-5.57l-3.49-10.39h-2.37l-0.82,5.82c-0.09,0.64-0.29,1.23-0.6,1.79c-0.31,0.55-0.71,1.04-1.18,1.45
				c-0.47,0.42-1.01,0.74-1.59,0.98c-0.59,0.24-1.19,0.35-1.8,0.35h-5.53l2.3-3.66h1.21c0.39,0,0.72-0.12,1.01-0.37
				c0.28-0.25,0.45-0.57,0.51-0.96l0.02-0.17l-17.63,4.2l0.49-3.49l17.66-4.36l0.15-1.08l-17.63,4.2l0.49-3.49l17.5-4.16l-0.48-1.04
				l-16.85,3.99l0.55-3.95l14.92-3.24h-0.04H130l0.43-3.08h-3.57l1.1-7.81h14.51l-0.42-1.45h6.23l0.42,1.45H160.05z M132.74,5.38
				l-0.48,3.41h25.98l0.3-2.12c0.05-0.36-0.03-0.66-0.25-0.91c-0.21-0.25-0.5-0.37-0.86-0.37H132.74z"/>
		</g>
		<g>
			<path class="st1" d="M56.6,33.98l-0.72,5.15h-0.99l0.57-4.06l-3.07,3.25h-0.25l-2.18-3.25l-0.57,4.06h-0.99l0.72-5.15h1.25
				l2.13,3.18l3-3.18H56.6z"/>
			<path class="st1" d="M60.44,33.98h1.29l2.5,5.15h-1.14l-0.59-1.27h-3.96l-0.95,1.27h-1.03L60.44,33.98z M62.15,37.11l-1.17-2.53
				l-1.9,2.53H62.15z"/>
			<path class="st1" d="M65.62,33.98h0.71l4.45,3.86l0.54-3.86h0.99l-0.72,5.15h-0.71l-4.44-3.86l-0.54,3.86H64.9L65.62,33.98z"/>
			<path class="st1" d="M76.15,33.98h1.29l2.5,5.15h-1.14l-0.59-1.27h-3.96l-0.95,1.27h-1.03L76.15,33.98z M77.86,37.11l-1.17-2.53
				l-1.9,2.53H77.86z"/>
			<path class="st1" d="M86.61,35.45l0.09-0.66h-4.62l-0.5,3.53h4.62l0.19-1.38h-2.39l0.11-0.76h3.38L87.24,38
				c-0.03,0.21-0.08,0.39-0.15,0.53c-0.07,0.15-0.16,0.26-0.27,0.35s-0.26,0.15-0.43,0.19c-0.17,0.04-0.38,0.06-0.61,0.06h-4
				c-0.24,0-0.44-0.02-0.6-0.06c-0.16-0.04-0.28-0.1-0.37-0.19c-0.09-0.09-0.15-0.21-0.17-0.35c-0.02-0.14-0.02-0.32,0.01-0.53
				l0.4-2.88c0.06-0.42,0.19-0.71,0.41-0.88c0.22-0.17,0.56-0.25,1.04-0.25h4c0.48,0,0.8,0.08,0.97,0.25
				c0.17,0.17,0.23,0.46,0.17,0.88l-0.02,0.15L86.61,35.45z"/>
			<path class="st1" d="M89.36,33.98h5.66l-0.11,0.81h-4.67l-0.19,1.34h2.88l-0.11,0.76h-2.88l-0.2,1.43h4.73l-0.11,0.81h-5.72
				L89.36,33.98z"/>
			<path class="st1" d="M103.68,35.4l0.09-0.61h-4.05l-0.19,1.32h3.87c0.24,0,0.43,0.02,0.59,0.06c0.16,0.04,0.28,0.1,0.37,0.19
				c0.09,0.09,0.15,0.21,0.17,0.35c0.02,0.14,0.02,0.32-0.01,0.53L104.42,38c-0.03,0.21-0.08,0.39-0.14,0.53
				c-0.06,0.15-0.16,0.26-0.27,0.35c-0.12,0.09-0.26,0.15-0.43,0.19c-0.17,0.04-0.38,0.06-0.61,0.06h-3.71
				c-0.24,0-0.44-0.02-0.6-0.06c-0.16-0.04-0.28-0.1-0.37-0.19c-0.09-0.09-0.15-0.21-0.17-0.35c-0.03-0.14-0.02-0.32,0.01-0.53
				l0.03-0.22l1.01-0.19l-0.1,0.73h4.33l0.2-1.45h-3.87c-0.48,0-0.8-0.08-0.97-0.25c-0.17-0.17-0.23-0.46-0.17-0.88l0.09-0.63
				c0.06-0.42,0.2-0.71,0.42-0.88c0.22-0.17,0.57-0.25,1.04-0.25h3.43c0.24,0,0.44,0.02,0.6,0.06c0.16,0.04,0.29,0.11,0.38,0.19
				c0.09,0.09,0.15,0.2,0.17,0.35c0.02,0.15,0.02,0.32-0.01,0.53l-0.02,0.11L103.68,35.4z"/>
			<path class="st1" d="M112.4,38c-0.03,0.21-0.08,0.39-0.15,0.53c-0.07,0.15-0.16,0.26-0.27,0.35s-0.26,0.15-0.43,0.19
				c-0.17,0.04-0.38,0.06-0.61,0.06h-4c-0.24,0-0.44-0.02-0.6-0.06c-0.16-0.04-0.28-0.1-0.37-0.19c-0.09-0.09-0.15-0.21-0.17-0.35
				c-0.03-0.14-0.02-0.32,0.01-0.53l0.41-2.88c0.06-0.42,0.19-0.71,0.41-0.88c0.22-0.17,0.56-0.25,1.04-0.25h4
				c0.48,0,0.8,0.08,0.97,0.25c0.17,0.17,0.23,0.46,0.17,0.88L112.4,38z M111.36,38.32l0.5-3.53h-4.62l-0.5,3.53H111.36z"/>
			<path class="st1" d="M114.52,33.98h5.6L120,34.79h-4.61l-0.19,1.34h2.64l-0.11,0.76h-2.64l-0.31,2.24h-0.99L114.52,33.98z"/>
			<path class="st1" d="M123.54,39.13h-0.99l0.61-4.34h-2.7l0.11-0.81h6.39l-0.11,0.81h-2.7L123.54,39.13z"/>
			<path class="st1" d="M127.17,33.98h1.07l0.99,3.93l2.22-3.93h0.82l1.06,3.93l2.1-3.93h0.93l-2.86,5.15h-0.82l-1.09-3.89
				l-2.19,3.89h-0.82L127.17,33.98z"/>
			<path class="st1" d="M139.37,33.98h1.29l2.5,5.15h-1.14l-0.59-1.27h-3.96l-0.95,1.27h-1.03L139.37,33.98z M141.08,37.11
				l-1.17-2.53l-1.9,2.53H141.08z"/>
			<path class="st1" d="M143.83,39.13l0.72-5.15h4.68c0.22,0,0.4,0.01,0.53,0.03c0.13,0.02,0.24,0.06,0.34,0.12
				c0.16,0.08,0.25,0.2,0.29,0.34c0.04,0.14,0.04,0.36,0,0.65l-0.13,0.94c-0.03,0.18-0.05,0.32-0.08,0.41
				c-0.03,0.09-0.07,0.18-0.12,0.27c-0.11,0.17-0.26,0.28-0.45,0.35c-0.2,0.07-0.47,0.1-0.82,0.1h-0.55l2.13,1.94h-1.4l-2.05-1.94
				h-1.83l-0.27,1.94H143.83z M148.56,36.44c0.26,0,0.44-0.04,0.54-0.12c0.1-0.08,0.17-0.23,0.21-0.46l0.07-0.49
				c0.03-0.22,0-0.37-0.08-0.46c-0.08-0.08-0.25-0.13-0.51-0.13h-3.36l-0.23,1.64H148.56z"/>
			<path class="st1" d="M152.18,33.98h5.66l-0.11,0.81h-4.67l-0.19,1.34h2.88l-0.11,0.76h-2.88l-0.2,1.43h4.73l-0.11,0.81h-5.72
				L152.18,33.98z"/>
		</g>
		<path class="st2" d="M69.26,26.56l13.4-21.02l-3.13,3.59L66.65,24.59c-0.41-0.05-0.84-0.03-1.27,0.08
			c-1.76,0.47-2.81,2.28-2.34,4.05c0.01,0.05,0.02,0.1,0.04,0.15l-3.17,3.8l-0.52,0.9l0.66-0.8l2.35,0.02l1.12,2.37l0.31-0.09
			l2.46-3.85c0.26,0,0.53-0.06,0.8-0.13c1.76-0.47,2.81-2.29,2.34-4.06C69.38,26.87,69.32,26.71,69.26,26.56z M66.57,29.15
			c-0.71,0.19-1.43-0.23-1.62-0.94c-0.19-0.71,0.23-1.43,0.94-1.62c0.71-0.19,1.43,0.23,1.62,0.94
			C67.69,28.24,67.27,28.96,66.57,29.15z"/>
	</g>
	<polygon class="st0" points="160.08,43.95 5.27,43.95 5.57,41.86 160.37,41.86 	"/>
</g>
<g class="st3">
	<path class="st4" d="M40.82,15.7L40.82,15.7l0.01-0.1L43.02,0H4.57L2.38,15.6l-1.1,7.85l-0.9,6.38h7.85l0.88-6.28h24.33l-0.88,6.28
		h6.66l-0.22,1.57h-6.66h-1.98H8.38H8H0.16l-0.09,0.66c-0.53,3.8,2.41,7.19,6.25,7.19h27.34h3.86h7.25l2.3-16.36
		C47.59,19.08,44.65,15.7,40.82,15.7z M32.97,16H10.21l1.1-8h22.76L32.97,16z"/>
	<polygon class="st4" points="35.7,24.95 6.08,24.95 6.2,24.07 35.83,24.07 	"/>
	<polygon class="st4" points="35.54,26.58 5.91,26.58 6.04,25.69 35.66,25.69 	"/>
	<polygon class="st4" points="35.05,28.2 5.42,28.2 5.55,27.32 35.17,27.32 	"/>
	<polygon class="st4" points="34.64,29.82 5.02,29.82 5.14,28.94 34.77,28.94 	"/>
	<g class="st5">
		<g>
			<path class="st1" d="M49.81,13.78l5-9.23h-3.62l0.4-2.87h13.76l-0.4,2.87h-5.61L57.13,8.7h7.23l-0.02,0.12l-0.39,2.78
				l-2.13,15.13c-0.13,0.94-0.52,1.73-1.16,2.37c-0.64,0.64-1.44,0.96-2.38,0.96l-4.29,0.04h-4.36l2.3-16.33H49.81z M59.46,11.61
				h-2.87l-2.18,15.55h1.91c0.28,0,0.52-0.09,0.72-0.27c0.21-0.18,0.33-0.41,0.37-0.69L59.46,11.61z M72.53,20.05H85.5l-0.08,0.58
				l-0.86,6.11c-0.13,0.94-0.57,1.73-1.31,2.37c-0.74,0.64-1.58,0.96-2.52,0.96h-5.2l1.54-2.95h1.37c0.25,0,0.48-0.09,0.7-0.27
				c0.22-0.18,0.35-0.41,0.39-0.69l0.43-3.03h-9.02L72.53,20.05z M68.04,18.31h-4.28l0.43-3.03h8.31h5.49h8.19l-0.43,3.03H73.48
				H68.04z M80.88,13.9l0.19-1.33c0.04-0.28-0.03-0.51-0.19-0.69c-0.17-0.18-0.38-0.27-0.63-0.27H70.23l-0.32,2.29h-5.53l0.32-2.29
				l0.21-1.5l0.22-1.54h2.78L67.3,5.55h5.24l0.61,3.03h6.44l3.07-3.03h3.05l-1.47,3.03h0.58c0.64,0,1.15,0.22,1.53,0.66
				c0.38,0.44,0.53,0.98,0.44,1.62l-0.43,3.03H80.88z M66.1,1.64h7.81L73.6,0.02h5.32l0.35,1.62h8.81l-0.43,3.03H65.67L66.1,1.64z"
				/>
			<path class="st1" d="M120.99,8c0.61,0,1.17,0.12,1.68,0.35c0.51,0.24,0.93,0.55,1.26,0.96c0.33,0.4,0.58,0.87,0.74,1.41
				c0.16,0.54,0.2,1.12,0.11,1.72l-0.11,0.75h-2.91l-0.32,2.29l-0.25,1.79c-0.12,0.89-0.55,1.65-1.28,2.29
				c-0.73,0.64-1.53,0.96-2.42,0.96H95.99l-0.2,1.45h24.73l-0.09,0.62l-0.35,2.49l-0.25,1.75c-0.06,0.44-0.2,0.86-0.42,1.25
				c-0.22,0.39-0.5,0.73-0.83,1.02c-0.33,0.29-0.71,0.52-1.14,0.69c-0.43,0.17-0.86,0.25-1.3,0.25H89l0.43-3.03l0.27-1.91l0.44-3.12
				l0.2-1.45l0.43-3.08l0.27-1.95l0.32-2.29h-3.2L88.9,8h14.8l-0.47-1.12h6.28L109.97,8H120.99z M106.82,4.09h-3.87l0.8,2h-4.82
				l-0.84-2h-2l-1.19,2h-5.74l3.67-5.99h5.69l-0.7,1.16h9.39L106.82,4.09z M94.2,10.78l-0.23,1.62h25.1l0.08-0.54
				c0.04-0.3-0.02-0.56-0.2-0.77c-0.18-0.21-0.42-0.31-0.72-0.31h-8.69h-5.69H94.2z M95.35,25.08l-0.27,1.91h18.41
				c0.44,0,0.7-0.22,0.76-0.67l0.18-1.25H95.35z M115.78,15.48H96.7l-0.27,1.95h18.41c0.44,0,0.7-0.22,0.76-0.66L115.78,15.48z
				 M117.07,0.1l-0.75,1.16h9.39l-0.4,2.83h-3.87l0.84,2h-4.86l-0.84-2h-2l-1.19,2h-5.74l3.67-5.99H117.07z"/>
			<path class="st1" d="M160.05,1.56c0.61,0,1.17,0.12,1.7,0.35c0.52,0.24,0.96,0.56,1.32,0.98c0.36,0.42,0.61,0.9,0.77,1.45
				c0.16,0.55,0.19,1.14,0.11,1.75l-0.46,3.28h-4.45l-0.43,3.08h-11.39l1.6,3.7l-0.35,2.49l4.29-5.4h5.74l-4.59,5.78h2.04
				l3.81,11.01h-5.57l-3.49-10.39h-2.37l-0.82,5.82c-0.09,0.64-0.29,1.23-0.6,1.79c-0.31,0.55-0.71,1.04-1.18,1.45
				c-0.47,0.42-1.01,0.74-1.59,0.98c-0.59,0.24-1.19,0.35-1.8,0.35h-5.53l2.3-3.66h1.21c0.39,0,0.72-0.12,1.01-0.37
				c0.28-0.25,0.45-0.57,0.51-0.96l0.02-0.17l-17.63,4.2l0.49-3.49l17.66-4.36l0.15-1.08l-17.63,4.2l0.49-3.49l17.5-4.16l-0.48-1.04
				l-16.85,3.99l0.55-3.95l14.92-3.24h-0.04H130l0.43-3.08h-3.57l1.1-7.81h14.51l-0.42-1.45h6.23l0.42,1.45H160.05z M132.74,5.38
				l-0.48,3.41h25.98l0.3-2.12c0.05-0.36-0.03-0.66-0.25-0.91c-0.21-0.25-0.5-0.37-0.86-0.37H132.74z"/>
		</g>
		<text transform="matrix(1.1349 0 -0.1392 0.9903 47.5548 39.1311)" class="st1 st6 st7">MANAGE SOFTWARE</text>
		<path class="st2" d="M69.26,26.56l13.4-21.02l-3.13,3.59L66.65,24.59c-0.41-0.05-0.84-0.03-1.27,0.08
			c-1.76,0.47-2.81,2.28-2.34,4.05c0.01,0.05,0.02,0.1,0.04,0.15l-3.17,3.8l-0.52,0.9l0.66-0.8l2.35,0.02l1.12,2.37l0.31-0.09
			l2.46-3.85c0.26,0,0.53-0.06,0.8-0.13c1.76-0.47,2.81-2.29,2.34-4.06C69.38,26.87,69.32,26.71,69.26,26.56z M66.57,29.15
			c-0.71,0.19-1.43-0.23-1.62-0.94c-0.19-0.71,0.23-1.43,0.94-1.62c0.71-0.19,1.43,0.23,1.62,0.94
			C67.69,28.24,67.27,28.96,66.57,29.15z"/>
	</g>
	<polygon class="st4" points="160.08,43.95 5.27,43.95 5.57,41.86 160.37,41.86 	"/>
</g>
</svg>
